<?xml version="1.0" encoding="utf-8" standalone="yes"?>
<!DOCTYPE svg PUBLIC "-//W3C//DTD SVG 1.1//EN" "http://www.w3.org/Graphics/SVG/1.1/DTD/svg11.dtd">
<svg width="624" height="564" viewBox="0 0 624 564" style="fill:none;stroke:none;fill-rule:evenodd;clip-rule:evenodd;stroke-linecap:round;stroke-linejoin:round;stroke-miterlimit:1.5;" version="1.1" xmlns="http://www.w3.org/2000/svg" xmlns:xlink="http://www.w3.org/1999/xlink"><style class="text-font-style fontImports" data-font-family="Comfortaa">@import url('https://fonts.googleapis.com/css2?family=Comfortaa:wght@400;700&amp;display=block');</style><g id="items" style="isolation: isolate"><g id="blend" style="mix-blend-mode: normal"><g id="g-root-sy_-1_cu_me8iowpv3hty-fill" data-item-order="-188922" transform="translate(56, 122)"><g id="sy_-1_cu_me8iowpv3hty-fill" stroke="none" fill="#ebebeb"><g><path d="M 10 394L 10 322L 82 322L 82 394L 10 394ZM 34 298L 10 322L 82 322L 106 298L 34 298ZM 34 298L 34 226L 106 226L 106 298L 34 298ZM 58 202L 34 226L 106 226L 130 202L 58 202ZM 58 202L 58 130L 130 130L 130 202L 58 202ZM 82 106L 58 130L 130 130L 154 106L 82 106ZM 82 106L 82 34L 154 34L 154 106L 82 106ZM 106 10L 82 34L 154 34L 178 10L 106 10Z"></path></g></g></g><g id="g-root-sy_-1_cu_1_92s0bkpv3jev-fill" data-item-order="-188918" transform="translate(380, 122)"><g id="sy_-1_cu_1_92s0bkpv3jev-fill" stroke="none" fill="#ebebeb"><g><path d="M 178 322L 178 394L 106 394L 106 322L 178 322ZM 178 322L 154 298L 82 298L 106 322L 178 322ZM 154 226L 154 298L 82 298L 82 226L 154 226ZM 154 226L 130 202L 58 202L 82 226L 154 226ZM 130 130L 130 202L 58 202L 58 130L 130 130ZM 130 130L 106 106L 34 106L 58 130L 130 130ZM 106 34L 106 106L 34 106L 34 34L 106 34ZM 106 34L 82 10L 10 10L 34 34L 106 34Z"></path></g></g></g><g id="g-root-sy_1_cu_4myi74pv3k74-fill" data-item-order="-188914" transform="translate(128, 410)"><g id="sy_1_cu_4myi74pv3k74-fill" stroke="none" fill="#dce9ff"><g><path d="M 10 106L 10 34L 358 34L 358 106L 10 106ZM 334 10L 358 34L 10 34L 34 10L 334 10Z"></path></g></g></g><g id="g-root-sy_2_cu_4myi74pv3k75-fill" data-item-order="-188910" transform="translate(152, 314)"><g id="sy_2_cu_4myi74pv3k75-fill" stroke="none" fill="#c8ffe5"><g><path d="M 10 34L 10 106L 310 106L 310 34L 10 34ZM 286 10L 310 34L 10 34L 34 10L 286 10Z"></path></g></g></g><g id="g-root-sy_3_cu_1usfjxcpv3ksq-fill" data-item-order="-188906" transform="translate(176.00009155273438, 218)"><g id="sy_3_cu_1usfjxcpv3ksq-fill" stroke="none" fill="#e9ffb9"><g><path d="M 10 106L 10 34L 262 34L 262 106L 10 106ZM 238 10L 262 34L 10 34L 34 10L 238 10Z"></path></g></g></g><g id="g-root-sy_4_cu_1usfjxcpv3ksr-fill" data-item-order="-188902" transform="translate(200.00009155273438, 122)"><g id="sy_4_cu_1usfjxcpv3ksr-fill" stroke="none" fill="#d1f4ff"><g><path d="M 10 106L 10 34L 214 34L 214 106L 10 106ZM 190 10L 214 34L 10 34L 34 10L 190 10Z"></path></g></g></g><g id="g-root-ic_deal_vb4h40pv3j7l-fill" data-item-order="-2304" transform="translate(416, 158)"><g id="ic_deal_vb4h40pv3j7l-fill" stroke="none" fill="#1eabda"><g><path d="M 25.200001 29.879999C 26.133881 29.682165 26.977024 29.183306 27.6 28.460001C 27.81403 28.239521 28.113203 28.12277 28.419998 28.139999C 28.733307 28.159842 29.017118 28.331623 29.179998 28.599998C 30.593611 30.705688 31.773891 32.95895 32.699997 35.32C 32.84388 35.726959 33.228352 35.999294 33.66 36C 34.099293 35.99781 34.483459 35.70356 34.599998 35.279999C 35.197006 33.51812 35.94651 31.811659 36.84 30.18C 37.976387 27.688677 39.83733 25.597733 42.18 24.18C 42.415176 24.055782 42.690739 24.032488 42.943432 24.115461C 43.196121 24.198435 43.404236 24.38055 43.52 24.619999C 43.637188 24.858616 43.654545 25.134075 43.56823 25.385511C 43.481915 25.63695 43.299038 25.84367 43.060001 25.959999C 41.159996 27.197323 39.637619 28.934212 38.66 30.98C 38.523026 31.224363 38.494835 31.514975 38.582275 31.781109C 38.669724 32.047245 38.864784 32.2645 39.120003 32.379997C 41.307854 33.098404 43.711029 32.361431 45.119999 30.539999C 47.65921 27.009762 48.309174 22.460007 46.860001 18.360001C 46.732723 18.071802 46.477077 17.860435 46.170094 17.789593C 45.86311 17.718752 45.540695 17.796719 45.299999 18C 43.954514 18.983646 42.412853 19.665794 40.779999 20C 39.327663 20.291191 37.939129 20.839832 36.68 21.619999C 35.233124 22.454412 34.296009 23.953796 34.18 25.620001C 34.207256 26.487814 34.516136 27.323198 35.059998 28C 35.279781 28.333733 35.279781 28.766268 35.059998 29.1C 34.669777 29.81498 34.315987 30.549252 34 31.299999C 33.910698 31.471643 33.733482 31.579514 33.540001 31.579998C 33.356773 31.5805 33.18795 31.48074 33.099998 31.32C 30.205923 25.897274 26.222662 21.13098 21.4 17.32C 20.971092 16.976547 20.899643 16.35137 21.24 15.92C 21.401764 15.709287 21.642141 15.573271 21.906071 15.543108C 22.169998 15.512945 22.434864 15.591219 22.639999 15.76C 25.543278 18.046362 28.15601 20.679245 30.42 23.6C 30.618437 23.837337 30.910656 23.976143 31.219999 23.98C 31.531942 23.968544 31.823671 23.822681 32.02 23.58C 32.466965 22.987274 32.780769 22.305084 32.940002 21.58C 33.165108 19.310093 32.260403 17.074501 30.52 15.6C 28.685028 13.993647 26.417122 12.964045 24 12.639999C 21.776762 12.278168 19.656261 11.446332 17.779999 10.2C 17.547474 10.004065 17.235872 9.929874 16.939999 10C 16.647739 10.067048 16.403593 10.266804 16.279999 10.54C 14.1 15.440001 15.82 24 18.74 26.98C 20.439999 28.719999 22.82 30.379999 25.200001 29.879999ZM 49.700001 39.5L 48.779999 39.5C 48.392899 39.500332 48.008167 39.439583 47.639999 39.32L 40.860001 37.32C 39.62207 36.879303 38.258446 36.958672 37.080002 37.540001L 33.799999 39.120003C 33.49572 39.291039 33.124279 39.291039 32.82 39.120003C 32.122852 38.670322 31.309574 38.433983 30.480001 38.440002C 27.804384 38.926861 25.164967 39.59507 22.580002 40.440002C 22.259449 40.538609 21.910679 40.462788 21.66 40.239998C 21.107468 39.757252 20.393448 39.500206 19.66 39.52L 17.66 39.52C 16.555431 39.52 15.66 40.415428 15.66 41.52L 15.66 52.52C 15.66 53.624569 16.555431 54.52 17.66 54.52L 19.66 54.52C 20.573502 54.518745 21.435959 54.098572 22 53.380001C 22.190483 53.143551 22.4764 53.004257 22.779999 53L 25.48 53C 25.740929 52.998432 25.992134 53.098915 26.18 53.279999L 30 57.040001C 30.544819 57.649132 31.322771 57.998119 32.139999 58C 32.801117 57.995907 33.441833 57.770599 33.959999 57.360001L 38.84 53.360001C 39.191879 53.077679 39.628872 52.922615 40.080002 52.919998L 45.060001 52.919998C 45.422249 52.914959 45.758892 53.106232 45.939999 53.419998C 46.295105 54.035088 46.94978 54.415714 47.66 54.419998L 49.66 54.419998C 51.316856 54.420002 52.66 53.076855 52.66 51.420002L 52.66 42.419998C 52.617184 40.809883 51.310555 39.520908 49.700001 39.5ZM 38.52 49.5C 38.50074 49.772736 38.370651 50.025692 38.16 50.200001L 32.900002 54.400002C 32.525978 54.740761 31.954025 54.740761 31.58 54.400002L 27.58 50.400002C 27.288773 50.12632 26.89924 49.982052 26.5 50L 23.700001 50C 23.152184 49.989361 22.71064 49.547817 22.700001 49L 22.700001 44.259998C 22.702526 43.809937 23.005405 43.417011 23.439999 43.299999L 30.26 41.419998C 30.514996 41.358315 30.784033 41.425571 30.98 41.599998C 31.173618 41.76984 31.270916 42.024307 31.24 42.279999C 31.140602 42.956142 31.223452 43.646564 31.48 44.279999C 31.852116 45.220547 32.566742 45.985195 33.48 46.419998C 34.170155 46.726524 34.935066 46.823875 35.68 46.700001C 36.015541 46.639252 36.358124 46.761059 36.579998 47.019997L 38.18 48.779999C 38.384029 48.948677 38.507477 49.195568 38.52 49.459999ZM 45.700001 49.040001C 45.700001 49.592285 45.252285 50.040001 44.700001 50.040001L 43 50.040001C 42.501232 50.036392 42.078228 49.672607 42 49.18C 41.927738 48.636948 41.706184 48.124603 41.360001 47.700001L 40 46C 39.894924 45.887363 39.850288 45.731144 39.879997 45.579998C 39.89505 45.427517 39.985039 45.292538 40.120003 45.220001C 40.716682 44.863064 40.989861 44.142868 40.779999 43.48C 40.664833 43.102356 40.403549 42.786381 40.054253 42.602345C 39.704952 42.418304 39.2966 42.381458 38.919998 42.5L 35.52 43.540001C 35.085472 43.688908 34.608536 43.486698 34.413448 43.070854C 34.218361 42.655006 34.367729 42.158978 34.760002 41.919998L 38.5 40.099998C 38.972244 39.864395 39.527756 39.864395 40 40.099998L 45.080002 41.620003C 45.498745 41.751678 45.782658 42.141048 45.779999 42.580002Z"></path></g></g></g><g id="g-root-ic_a_7502opv4ydf-fill" data-item-order="-2304" transform="translate(440, 254)"><g id="ic_a_7502opv4ydf-fill" stroke="none" fill="#92bd39"><g><path d="M 44.186001 37.629997C 36.55526 37.631306 30.368631 31.445738 30.368631 23.814999C 30.368631 16.184261 36.55526 9.998693 44.185997 10C 51.814888 10.001307 57.998631 16.18611 57.998631 23.814999C 57.998631 31.443888 51.814888 37.628693 44.185997 37.629997ZM 44.186001 17.296C 44.122562 17.295378 44.065983 17.335791 44.046001 17.396L 41.919998 23.779999L 46.452 23.779999L 44.324001 17.394001C 44.304016 17.33379 44.247437 17.293377 44.183998 17.294001ZM 49.945999 24.771999L 47.167999 16.445999C 46.740372 15.161651 45.53867 14.2952 44.185001 14.2952C 42.831329 14.2952 41.629631 15.161651 41.202 16.445999L 38.426003 24.771999C 38.418213 24.794518 38.410881 24.817188 38.403999 24.84L 36.834 29.548C 36.571663 30.3339 36.996101 31.183664 37.781998 31.445999C 38.567902 31.708336 39.417664 31.283901 39.68 30.497999L 40.919998 26.780001L 47.452 26.780001L 48.692001 30.497999C 48.848755 31.02239 49.278675 31.419777 49.813759 31.534863C 50.348839 31.649948 50.904125 31.46446 51.262615 31.05089C 51.621105 30.63732 51.725883 30.061323 51.536003 29.548L 49.966 24.84C 49.959877 24.817177 49.953209 24.794504 49.946003 24.771999ZM 31.246 46.82L 14.26 46.82L 14.26 18.366001C 14.26 16.472 15.764 14.966 17.66 14.966L 29.886 14.966C 30.804247 13.486147 31.945724 12.157123 33.27 11.026C 32.934822 10.98601 32.597557 10.965975 32.260002 10.966L 17.66 10.966C 15.695605 10.960134 13.809977 11.73789 12.420933 13.126933C 11.031891 14.515976 10.254133 16.401606 10.26 18.366001L 10.26 51.034C 10.26 54.34771 12.946291 57.034 16.26 57.034L 30.35 57.034C 30.092102 56.231678 30.029703 55.379333 30.168001 54.548L 31.247999 46.82ZM 35.482002 38.204002C 38.10603 39.795399 41.117111 40.634659 44.186001 40.629997C 47.369999 40.629997 50.346001 39.743999 52.886002 38.208L 55.234001 54.995998C 55.630001 57.363998 52.866001 58.944 50.894001 57.363998L 44.183998 50.653999L 37.473999 57.363998C 35.893997 58.944 32.736 57.363998 33.132 54.995998L 35.482002 38.204002Z"></path></g></g></g><g id="g-root-ic_tick_mbqmcgpv6dj9-fill" data-item-order="-2304" transform="translate(464, 350)"><g id="ic_tick_mbqmcgpv6dj9-fill" stroke="none" fill="#3cc583"><g><path d="M 27.620001 35.580002C 28.043013 33.418335 29.1679 31.456812 30.82 30C 33.726715 27.423326 37.573296 26.170111 41.440002 26.540001C 41.750904 26.557785 42.052898 26.432566 42.259998 26.199999C 42.458134 25.960598 42.538834 25.645138 42.48 25.34C 41.557236 21.327312 38.947346 17.908211 35.32 15.96C 30.633717 13.35436 25.053699 12.888144 20 14.68C 16.644531 15.82831 13.780487 18.085684 11.88 21.080002C 10.123173 23.864086 9.574452 27.243048 10.36 30.440001C 11.180006 33.640022 13.125459 36.4375 15.84 38.32C 15.42 39.580002 15 40.84 14.6 42.099998C 14.469881 42.48748 14.588676 42.915142 14.9 43.18C 15.084254 43.320007 15.308607 43.397129 15.54 43.400002C 15.698494 43.3979 15.854939 43.363892 16 43.299999L 19.299999 41.540001L 20.779999 40.739998C 22.828703 41.353783 24.962095 41.637337 27.099998 41.579998C 27.421967 41.570732 27.719757 41.406948 27.9 41.139999C 28.071541 40.879318 28.108677 40.552525 28 40.260002C 27.503696 38.752266 27.37344 37.148048 27.620001 35.580002ZM 29.620001 22.700001C 29.737486 21.982323 30.235275 21.384977 30.92 21.139999C 31.539288 20.897697 32.240822 21.004452 32.760002 21.420002C 33.300346 21.813948 33.608055 22.451881 33.580002 23.119999C 33.540451 23.869289 33.084835 24.533405 32.400002 24.84C 32.128868 24.958838 31.836031 25.02013 31.540001 25.02C 31.080179 25.026182 30.635811 24.854168 30.299999 24.539999C 29.742046 24.105759 29.478535 23.392725 29.620001 22.700001ZM 22.98 23.52C 22.806072 24.169214 22.317684 24.687656 21.68 24.9C 21.001057 25.158281 20.235453 25.02813 19.68 24.560001C 19.133339 24.108 18.866989 23.400265 18.98 22.700001C 19.094315 21.969913 19.601892 21.362358 20.299999 21.119999C 20.996887 20.888355 21.764675 21.057266 22.299999 21.560001C 22.87429 22.035507 23.136395 22.790989 22.98 23.52ZM 57.099998 36.900002C 55.897301 34.283886 53.826992 32.16412 51.240002 30.9C 46.749462 28.664688 41.470535 28.664688 36.98 30.9C 33.755543 32.482635 31.397463 35.41193 30.540001 38.900002C 29.955063 41.534027 30.429163 44.292431 31.859999 46.579998C 33.972538 49.857014 37.372719 52.087475 41.220001 52.719997C 43.790524 53.189568 46.435593 53.045666 48.940002 52.300003C 49.624046 52.62685 50.291527 52.987289 50.940002 53.380001C 51.52 53.700001 52.099998 54.040001 52.700001 54.32C 52.834801 54.392838 52.986958 54.427418 53.139999 54.419998C 53.375225 54.419399 53.602383 54.334217 53.779999 54.18C 54.07811 53.923923 54.202587 53.519363 54.099998 53.139999C 53.799999 52.119999 53.48 51.139999 53.139999 50.119999C 54.652382 48.999252 55.890232 47.549397 56.759998 45.879997C 58.24791 43.098133 58.373299 39.786415 57.100002 36.900002ZM 42.18 38.139999C 41.938671 39.038437 41.109737 39.651848 40.18 39.620003C 39.589165 39.627621 39.0252 39.373589 38.639389 38.926048C 38.253574 38.478504 38.085411 37.883263 38.18 37.299999C 38.284149 36.557999 38.794296 35.936455 39.501751 35.689629C 40.209206 35.442806 40.995277 35.612114 41.538391 36.128288C 42.081505 36.644466 42.290546 37.420918 42.080002 38.139999ZM 50.599998 38.139999C 50.358673 39.038437 49.529739 39.651848 48.599998 39.620003C 48.009163 39.627621 47.445198 39.373589 47.059387 38.926048C 46.673576 38.478504 46.505409 37.883263 46.599998 37.299999C 46.714314 36.569916 47.221893 35.962357 47.919998 35.720001C 48.621243 35.478504 49.398548 35.64489 49.939484 36.152283C 50.480423 36.659676 50.696167 37.424751 50.5 38.139999Z"></path></g></g></g><g id="g-root-ic_1_8z15swpv7qbz-fill" data-item-order="-2304" transform="translate(488, 446)"><g id="ic_1_8z15swpv7qbz-fill" stroke="none" fill="#4e88e7"><g><path d="M 50 22C 53.313709 22 56 19.313709 56 16C 56 12.686292 53.313709 10 50 10C 46.686295 10 44 12.686292 44 16C 44 19.313709 46.686295 22 50 22ZM 51.652 24.914C 52.790001 25.524 53.5 26.709999 53.5 28L 53.5 54.5C 53.5 56.432999 51.932999 58.000004 50 58.000004C 48.067005 58.000004 46.5 56.432999 46.5 54.500004L 46.5 34.393997C 44.961414 35.122414 43.280304 35.500168 41.578003 35.5L 40.938 35.5C 40.709862 36.383583 39.91256 37.000687 39 37L 30 37L 30 54L 33 54C 34.104568 54 35 54.895432 35 56C 35 57.104568 34.104568 58 33 58L 15 58C 13.895431 58 13 57.104568 13 56L 13 35C 13 33.895432 13.895431 33 15 33L 16.026001 33C 16.226 29.257999 17.542 26.629999 18.944 24.894001C 19.551613 24.135305 20.254776 23.458361 21.035999 22.880001C 21.291115 22.692501 21.556168 22.518917 21.829998 22.359999L 19.09 13.596C 18.760658 12.541078 19.348948 11.418926 20.403915 11.089732C 21.458885 10.760538 22.580952 11.348986 22.91 12.403999L 27.91 28.403999C 28.238981 29.458805 27.650675 30.580603 26.595915 30.909731C 25.541157 31.238861 24.419277 30.650713 24.09 29.595999L 23.08 26.360001C 22.776001 26.614 22.42 26.958 22.056 27.406C 21.18 28.492001 20.223999 30.257999 20.034 33L 32.643997 33C 32.328102 31.940435 32.531433 30.793905 33.192429 29.907589C 33.853424 29.021273 34.894348 28.499401 36 28.5L 41.577999 28.5C 42.466385 28.499903 43.334866 28.236855 44.074001 27.743999L 48.057999 25.088001C 49.132187 24.371487 50.513622 24.304607 51.652 24.914001Z"></path></g></g></g><g id="g-root-ic_48px_1d3nfs0pv3j0i-fill" data-item-order="0" transform="translate(140, 158)"></g><g id="g-root-tx_crescerj_zqxz8gpv3ifc-fill" data-item-order="0" transform="translate(218, 170)"><g id="tx_crescerj_zqxz8gpv3ifc-fill" stroke="none" fill="#1eabda"><g><text style="font: 20px Comfortaa, sans-serif; white-space: pre;" font-size="20px" font-family="Comfortaa, sans-serif"><tspan x="12.48" y="33" dominant-baseline="ideographic">Crescer Juntos!</tspan></text></g></g></g><g id="g-root-ic_48px_18lyie8pv4y6c-fill" data-item-order="0" transform="translate(116, 254)"></g><g id="g-root-tx_credenci_zqxz8gpv3ifb-fill" data-item-order="0" transform="translate(212, 266)"><g id="tx_credenci_zqxz8gpv3ifb-fill" stroke="none" fill="#92bd39"><g><text style="font: 20px Comfortaa, sans-serif; white-space: pre;" font-size="20px" font-family="Comfortaa, sans-serif"><tspan x="13.44" y="33" dominant-baseline="ideographic">Credenciamento</tspan></text></g></g></g><g id="g-root-ic_48px_1uqk4o0pv6dc6-fill" data-item-order="0" transform="translate(92, 350)"></g><g id="g-root-tx_batepapo_146509spv3ksu-fill" data-item-order="0" transform="translate(176, 350)"><g id="tx_batepapo_146509spv3ksu-fill" stroke="none" fill="#3cc583"><g><text style="font: 20px Comfortaa, sans-serif; white-space: pre;" font-size="20px" font-family="Comfortaa, sans-serif"><tspan x="65.53" y="33" dominant-baseline="ideographic">Bate-Papo de </tspan><tspan x="13.59" y="57" dominant-baseline="ideographic">Apresentação bilaterial</tspan></text></g></g></g><g id="g-root-ic_48px_1lto68wpv7q4g-fill" data-item-order="0" transform="translate(68, 446)"></g><g id="g-root-tx_preenche_1d1s0iopv3k05-fill" data-item-order="0" transform="translate(158, 446)"><g id="tx_preenche_1d1s0iopv3k05-fill" stroke="none" fill="#4e88e7"><g><text style="font: 20px Comfortaa, sans-serif; white-space: pre;" font-size="20px" font-family="Comfortaa, sans-serif"><tspan x="12.33" y="33" dominant-baseline="ideographic">Preencher o Formulário de </tspan><tspan x="104.11" y="57" dominant-baseline="ideographic">Interesse</tspan></text></g></g></g><g id="g-root-sy_-1_cu_me8iowpv3hty-stroke" data-item-order="-188922" transform="translate(56, 122)"><g id="sy_-1_cu_me8iowpv3hty-stroke" fill="none" stroke-linecap="round" stroke-linejoin="round" stroke-miterlimit="4" stroke="#ffffff" stroke-width="2"><g><path d="M 10 394L 10 322L 82 322L 82 394L 10 394ZM 10 322L 34 298L 106 298L 82 322L 10 322ZM 34 298L 34 226L 106 226L 106 298L 34 298ZM 34 226L 58 202L 130 202L 106 226L 34 226ZM 58 202L 58 130L 130 130L 130 202L 58 202ZM 58 130L 82 106L 154 106L 130 130L 58 130ZM 82 106L 82 34L 154 34L 154 106L 82 106ZM 82 34L 106 10L 178 10L 154 34L 82 34Z"></path></g></g></g><g id="g-root-sy_-1_cu_1_92s0bkpv3jev-stroke" data-item-order="-188918" transform="translate(380, 122)"><g id="sy_-1_cu_1_92s0bkpv3jev-stroke" fill="none" stroke-linecap="round" stroke-linejoin="round" stroke-miterlimit="4" stroke="#ffffff" stroke-width="2"><g><path d="M 178 322L 178 394L 106 394L 106 322L 178 322ZM 178 322L 154 298L 82 298L 106 322L 178 322ZM 154 226L 154 298L 82 298L 82 226L 154 226ZM 154 226L 130 202L 58 202L 82 226L 154 226ZM 130 130L 130 202L 58 202L 58 130L 130 130ZM 130 130L 106 106L 34 106L 58 130L 130 130ZM 106 106L 106 34L 34 34L 34 106L 106 106ZM 106 34L 82 10L 10 10L 34 34L 106 34Z"></path></g></g></g><g id="g-root-sy_1_cu_4myi74pv3k74-stroke" data-item-order="-188914" transform="translate(128, 410)"><g id="sy_1_cu_4myi74pv3k74-stroke" fill="none" stroke-linecap="round" stroke-linejoin="round" stroke-miterlimit="4" stroke="#ffffff" stroke-width="2"><g><path d="M 10 34L 10 106L 358 106L 358 34L 10 34ZM 358 34L 334 10L 34 10L 10 34L 358 34Z"></path></g></g></g><g id="g-root-sy_2_cu_4myi74pv3k75-stroke" data-item-order="-188910" transform="translate(152, 314)"><g id="sy_2_cu_4myi74pv3k75-stroke" fill="none" stroke-linecap="round" stroke-linejoin="round" stroke-miterlimit="4" stroke="#ffffff" stroke-width="2"><g><path d="M 10 106L 10 34L 310 34L 310 106L 10 106ZM 310 34L 286 10L 34 10L 10 34L 310 34Z"></path></g></g></g><g id="g-root-sy_3_cu_1usfjxcpv3ksq-stroke" data-item-order="-188906" transform="translate(176.00009155273438, 218)"><g id="sy_3_cu_1usfjxcpv3ksq-stroke" fill="none" stroke-linecap="round" stroke-linejoin="round" stroke-miterlimit="4" stroke="#ffffff" stroke-width="2"><g><path d="M 10 34L 10 106L 262 106L 262 34L 10 34ZM 262 34L 238 10L 34 10L 10 34L 262 34Z"></path></g></g></g><g id="g-root-sy_4_cu_1usfjxcpv3ksr-stroke" data-item-order="-188902" transform="translate(200.00009155273438, 122)"><g id="sy_4_cu_1usfjxcpv3ksr-stroke" fill="none" stroke-linecap="round" stroke-linejoin="round" stroke-miterlimit="4" stroke="#ffffff" stroke-width="2"><g><path d="M 10 34L 10 106L 214 106L 214 34L 10 34ZM 214 34L 190 10L 34 10L 10 34L 214 34Z"></path></g></g></g><g id="g-root-ic_deal_vb4h40pv3j7l-stroke" data-item-order="-2304" transform="translate(416, 158)"></g><g id="g-root-ic_a_7502opv4ydf-stroke" data-item-order="-2304" transform="translate(440, 254)"></g><g id="g-root-ic_tick_mbqmcgpv6dj9-stroke" data-item-order="-2304" transform="translate(464, 350)"></g><g id="g-root-ic_1_8z15swpv7qbz-stroke" data-item-order="-2304" transform="translate(488, 446)"></g><g id="g-root-ic_48px_1d3nfs0pv3j0i-stroke" data-item-order="0" transform="translate(140, 158)"><g id="ic_48px_1d3nfs0pv3j0i-stroke" fill="none" stroke-linecap="round" stroke-linejoin="round" stroke-miterlimit="4" stroke="#1eabda" stroke-width="2"><g><path d="M 15.07227 30.179C 15.07227 24.4822 17.78873 19.69573 23.0107 19.69573C 28.2328 19.69573 30.9492 24.4822 30.9492 30.179L 30.9492 37.2732C 30.9492 42.97 28.1054 47.8821 23.0107 47.8821C 17.91609 47.8821 15.07227 42.97 15.07227 37.2732L 15.07227 30.179ZM 49.9098 47.9788L 49.9098 19.55127L 36.2949 39.738L 55.3147 39.738"></path></g></g></g><g id="g-root-tx_crescerj_zqxz8gpv3ifc-stroke" data-item-order="0" transform="translate(218, 170)"></g><g id="g-root-ic_48px_18lyie8pv4y6c-stroke" data-item-order="0" transform="translate(116, 254)"><g id="ic_48px_18lyie8pv4y6c-stroke" fill="none" stroke-linecap="round" stroke-linejoin="round" stroke-miterlimit="4" stroke="#92bd39" stroke-width="2"><g><path d="M 15.07227 30.1785C 15.07227 24.4817 17.78873 19.69524 23.0107 19.69524C 28.2328 19.69524 30.9492 24.4817 30.9492 30.1785L 30.9492 37.2727C 30.9492 42.9695 28.1054 47.8816 23.0107 47.8816C 17.91609 47.8816 15.07227 42.9695 15.07227 37.2727L 15.07227 30.1785ZM 37.1212 27.0681C 37.0021 24.6592 38.4826 19.70994 45.0653 19.70994C 51.648 19.70994 52.6563 24.5974 52.4282 27.357C 52.1767 30.3999 50.2718 33.5079 42.2007 33.5079C 49.7136 33.5079 53.1255 35.562 53.1255 41.1245C 53.1255 45.9328 48.8755 47.8898 44.9922 47.8898C 42.2014 47.866 36.6196 46.2871 36.6196 40.1622"></path></g></g></g><g id="g-root-tx_credenci_zqxz8gpv3ifb-stroke" data-item-order="0" transform="translate(212, 266)"></g><g id="g-root-ic_48px_1uqk4o0pv6dc6-stroke" data-item-order="0" transform="translate(92, 350)"><g id="ic_48px_1uqk4o0pv6dc6-stroke" fill="none" stroke-linecap="round" stroke-linejoin="round" stroke-miterlimit="4" stroke="#3cc583" stroke-width="2"><g><path d="M 15.07227 30.1785C 15.07227 24.4817 17.78873 19.69524 23.0107 19.69524C 28.2328 19.69524 30.9492 24.4817 30.9492 30.1785L 30.9492 37.2727C 30.9492 42.9695 28.1054 47.8816 23.0107 47.8816C 17.91609 47.8816 15.07227 42.9695 15.07227 37.2727L 15.07227 30.1785ZM 36.8315 27.5154C 36.8315 22.8951 40.0559 19.69531 44.4376 19.69531C 51.7066 19.69531 54.1859 26.7886 49.4213 33.0984L 37.33 47.4175L 53.9507 47.4175"></path></g></g></g><g id="g-root-tx_batepapo_146509spv3ksu-stroke" data-item-order="0" transform="translate(176, 350)"></g><g id="g-root-ic_48px_1lto68wpv7q4g-stroke" data-item-order="0" transform="translate(68, 446)"><g id="ic_48px_1lto68wpv7q4g-stroke" fill="none" stroke-linecap="round" stroke-linejoin="round" stroke-miterlimit="4" stroke="#4e88e7" stroke-width="2"><g><path d="M 37.8418 23.3774L 46.2969 20.1836L 46.2969 47.951M 15.07227 30.1785C 15.07227 24.4817 17.78873 19.69524 23.0107 19.69524C 28.2328 19.69524 30.9492 24.4817 30.9492 30.1785L 30.9492 37.2727C 30.9492 42.9695 28.1054 47.8816 23.0107 47.8816C 17.91609 47.8816 15.07227 42.9695 15.07227 37.2727L 15.07227 30.1785Z"></path></g></g></g><g id="g-root-tx_preenche_1d1s0iopv3k05-stroke" data-item-order="0" transform="translate(158, 446)"></g></g></g><path id="w1448ywgorf0g6" d="M65.283 12.757a.35.35 0 0 0 .584.157l5.203-5.141-6.183 3.523.396 1.461zm-2.216-11.7a.35.35 0 0 0-.522.305v3.111l3.276-1.868-2.754-1.548zm3.728 2.105l-4.25 2.421v2.445l6.391-3.644-2.141-1.222zm4.708 3.303a.35.35 0 0 0 0-.609l-1.592-.9-7.365 4.199v1.782a.35.35 0 0 0 .523.305l8.435-4.777z M44.542 2.513c0-.433.355-.783.792-.783s.792.35.792.783-.355.783-.792.783-.792-.35-.792-.783zm59.171 0c0-.433.355-.783.792-.783s.792.35.792.783-.355.783-.792.783-.792-.35-.792-.783zm-85.951 7.636h-1.27v-.487c-.276.201-.864.609-1.881.609-1.202 0-2.274-.794-2.137-2.078.118-1.106 1.153-1.584 1.848-1.727l2.17-.345c0-.539-.29-.956-1.064-1.006s-1.21.305-1.571 1.017l-1.124-.605c1.218-2.631 5.029-1.764 5.029.414v4.207zm-1.27-2.86c.006.396-.062 1.112-.819 1.59-.587.37-1.841.299-1.903-.395-.049-.555.461-.791.906-.898l1.816-.297zm72.662 2.86h-1.27v-.487c-.276.201-.864.609-1.881.609-1.202 0-2.274-.794-2.137-2.078.118-1.106 1.153-1.584 1.848-1.727l2.17-.345c0-.539-.29-.956-1.064-1.006s-1.21.305-1.571 1.017l-1.124-.605c1.218-2.631 5.029-1.764 5.029.414v4.207zm-1.27-2.86c.006.396-.062 1.112-.82 1.59-.587.37-1.841.299-1.903-.395-.049-.555.461-.791.906-.898l1.816-.297zM99.096 10.149H97.85v-8.45h1.246v4.895l2.68-2.559h1.738l-2.633 2.535 2.715 3.578h-1.556l-2.077-2.707-.867.844v1.863zm6.053-6.114h-1.255v6.113h1.255V4.035zm-59.2 0h-1.255v6.113h1.255V4.035zm5.584 6.113V1.697h1.255v2.695c.361-.346 1-.485 1.47-.485 1.452 0 2.477 1.082 2.457 2.448v3.792h-1.27v-3.68c0-.408-.214-1.339-1.315-1.339-.968 0-1.342.756-1.342 1.339v3.681h-1.255zm-4.76-4.894V4.039h.621a.45.45 0 0 0 .45-.45v-.855h1.251v1.305h1.309v1.215h-1.309v3.109c0 .293.105.664.648.664.365 0 .531-.035.736-.07v1.137s-.361.113-.857.113c-1.398 0-1.777-1.051-1.777-1.788V5.254h-1.071zM36.528 4.039h-1.394l2.191 6.106h1.125l1.234-3.918 1.238 3.918h1.129l2.188-6.106h-1.383l-1.359 3.93-1.256-3.93h-1.124l-1.242 3.957-1.348-3.957zM26.212 7.141c-.02 1.566 1.187 3.129 3.223 3.129 1.566 0 2.383-.918 2.734-1.719L31.172 8c-.315.399-.801 1.094-1.738 1.094-1.145 0-1.825-.781-1.891-1.52h4.625c.074-.284.148-.995-.03-1.559-.336-1.064-1.221-2.102-2.839-2.102s-3.088 1.152-3.088 3.227zm1.363-.75h3.348c-.055-.43-.566-1.301-1.623-1.301a1.79 1.79 0 0 0-1.725 1.301zm-8.758.75c.038 1.758 1.277 3.133 3.145 3.133 1.074 0 1.723-.477 1.961-.672v.547h1.242V1.703h-1.258v2.888c-.414-.36-1.062-.68-1.93-.68-1.91 0-3.198 1.473-3.16 3.23zm1.309-.08c0 1.119.723 1.978 1.836 1.978a1.88 1.88 0 0 0 1.94-1.904c0-1.371-1.011-1.99-1.972-1.99s-1.805.798-1.805 1.916zm76.683-.028C96.771 5.275 95.532 3.9 93.664 3.9c-1.074 0-1.723.477-1.961.672v-.547h-1.242v8.22h1.258V9.583c.414.36 1.063.68 1.93.68 1.91 0 3.198-1.473 3.16-3.23zm-1.309.08c0-1.119-.723-1.978-1.836-1.978a1.88 1.88 0 0 0-1.94 1.904c0 1.371 1.011 1.99 1.972 1.99S95.5 8.231 95.5 7.113zM106.441 10.173V4.036h1.254v.382c.361-.346 1-.485 1.47-.485 1.452 0 2.477 1.082 2.457 2.448v3.792h-1.27V6.492c0-.408-.214-1.339-1.315-1.339-.969 0-1.342.756-1.342 1.339v3.681h-1.254zm-30.383-.021V1.824h1.084l4.215 5.777V1.824h1.32v8.328h-1.094l-4.207-5.796v5.796h-1.319zM5.24 10.149H4V2.377h1.014l2.664 3.597 2.654-3.592h1.03v7.766h-1.256V4.762L7.678 8.068 5.24 4.742v5.407z" transform="translate(496.81964111328125, 538.8197021484375)" fill="#80808088" stroke="none"></path></svg>