<?xml version="1.0" encoding="UTF-8"?>
<svg id="Camada_1" data-name="Camada 1" xmlns="http://www.w3.org/2000/svg" viewBox="0 0 292.55 80">
  <defs>
    <style>
      .cls-1 {
        fill: #8c8d90;
      }
    </style>
  </defs>
  <path class="cls-1" d="M43.36,38.98c5.19.89,8.14,3.52,8.23,8.86.05,3.3-1.39,6.14-4.11,8.06-2.29,1.25-4.8,2.05-7.56,2.07l-19.36.08V21.68s18.67.07,18.67.07c2.54,0,4.82.85,6.88,2.08,4.31,2.86,4.65,9.43,1.54,12.72-1.14,1.21-2.65,1.64-4.28,2.43ZM40.26,32.21c.3-2.17-1.13-3.96-3.21-3.98l-6.84-.07v7.7s6.26-.02,6.26-.02c2.13,0,3.83-1.28,3.79-3.63ZM42.24,46.58c.09-2.43-1.5-4.07-3.8-4.24l-8.22-.07v9.07s8.22-.07,8.22-.07c2.5-.02,4.08-2.13,3.8-4.68Z"/>
  <path class="cls-1" d="M77.28,39.01c1.43.32,2.89.74,4.24,1.58,2.42,1.53,3.59,4.17,3.65,7.02.08,4.01-2.07,7.52-5.78,9.07-1.77.83-3.62,1.05-5.65,1.34l-19.21.02V21.67s18.29.06,18.29.06c2.25,0,4.33.65,6.26,1.56,2.93,1.55,4.47,4.37,4.46,7.65s-1.57,5.87-4.48,7.16c-.48.37-.93.43-1.79.91ZM74.06,31.99c.03-2.25-1.25-3.74-3.43-3.76l-6.82-.08v7.73s6.92-.08,6.92-.08c2.16-.02,3.3-1.69,3.33-3.81ZM75.36,49.31c.72-1.77.67-3.59-.14-5.19-.76-1.19-2.03-1.6-3.41-1.8l-8-.04v9.06s8.46-.09,8.46-.09c1.3-.01,2.42-.79,3.1-1.93Z"/>
  <path class="cls-1" d="M108.78,58.01c-7.39,1.42-18.78.74-22.78-7.16l7.06-4.05c1.38,2.98,3.95,4.81,7.15,5.25,2.28.31,4.59.32,6.63-.74,1.77-.92,2.63-3.17,1.44-4.83-.98-1.35-2.66-1.75-4.2-2.08l-7.88-1.67c-2.2-.47-4.22-1.42-5.91-2.81-2.45-2-3.43-4.75-3.38-7.85.14-8.12,7.64-10.71,14.65-10.69,6.16.01,12.06,1.09,15.5,7.03l-7.2,3.41c-2.01-3.97-7.8-5.02-11.42-3.37-1.21.55-1.89,1.61-1.88,2.83.04,4.99,11.59,2.69,18.06,8.19,4.03,3.43,4.79,9.71,1.67,14.05-1.77,2.46-4.53,3.91-7.5,4.48Z"/>
  <path class="cls-1" d="M160.51,57.36c-4.6-.28-7.99-3.74-8.66-8.09-.5-3.2-.4-6.46,1.12-9.27,1.72-3.09,4.67-4.8,8.14-4.73,2.48.05,4.66.67,6.65,2.6l.08-10.4h4.62s.04,29.15.04,29.15l-4.42.03c-.16-.89.2-1.64-.2-2.47-1.92,2.29-4.41,3.36-7.37,3.18ZM162.48,53.61c1.9,0,4.74-1.3,5.14-3.23.6-2.83-.04-5.68.21-8.49-1.23-1.81-2.98-2.74-5.11-2.99-2.28-.27-4.43.95-5.38,3.09-1.09,2.48-1.17,5.23-.29,7.77.84,2.27,2.62,3.84,5.42,3.85Z"/>
  <path class="cls-1" d="M254.88,56.38c-2.15-1.13-3.03-3.28-2.87-5.5.46-6.22,8.71-7.06,13.59-7.48.08-1.3.12-2.92-1.09-3.75-2.37-1.64-5.89-.88-7.48,1.49-.2.3-.4,1.16-.86.86-1.1-.71-2.12-1.55-3.2-2.46,2-3.02,5.21-4.34,8.68-4.26,2.23.05,4.47.23,6.29,1.69,1.24.99,2.18,2.74,2.19,4.43l.09,13.39c0,.66.12,1.19.24,1.86h-4.37s-.36-2.36-.36-2.36c-2.69,3.05-7.12,4.06-10.86,2.1ZM265.81,50.47l-.05-4c-2.63.29-6.51.74-8.33,2.72-.8.87-.81,2.05-.32,3.02.43.85,1.25,1.42,2.38,1.55,2.56.3,5.04-.99,6.32-3.3Z"/>
  <path class="cls-1" d="M194.21,35.7l.03,19.09c0,.64.13,1.16.09,1.81l-4.49.06c-.13-.91.22-1.58-.23-2.59-1.84,2.6-4.54,3.41-7.42,3.29-3.52-.14-5.86-2.61-5.87-6.18l-.03-15.45,4.7-.07.11,15.13c.01,1.76,1.7,2.79,3.49,2.64,1.58-.13,4.51-1.18,4.78-3.14.66-4.85-.08-9.72.31-14.58l4.53-.02Z"/>
  <path class="cls-1" d="M141.72,39.59c-2.09-.95-6.47-.02-6.94,2.67-.83,4.75.13,9.54-.37,14.36h-4.61s.02-20.88.02-20.88l4.58-.09.12,2.8c2.02-2.5,4.77-3.25,7.82-3.17,3.23.08,5.93,2.02,5.95,5.48l.11,15.89h-4.63s-.03-13.65-.03-13.65c0-1.42-.41-2.68-2.02-3.4Z"/>
  <path class="cls-1" d="M212.97,54.63c-3.78,4.21-13.53,3.63-16.53-1.73,1.17-.89,2.32-1.56,3.62-2.29,1.63,3.06,5.74,4.11,8.68,2.27.94-.59,1.02-2.29.48-3.05-1.45-2.05-5.67-1.91-9.25-3.83-1.97-1.06-3.07-2.87-3.01-4.98s1.33-3.91,3.4-4.87c3.83-1.77,10.94-1.1,13.24,3.65-1.21.89-2.48,1.35-3.84,2.03-1.03-2.24-3.02-3.16-5.38-3.04-1.26.07-2.75.46-2.98,1.92-.16,1.02.85,1.84,1.78,2.11l6.28,1.81c1.6.46,3.07,1.31,4,2.76,1.39,2.15,1.3,5.24-.51,7.26Z"/>
  <path class="cls-1" d="M226.97,53.54l.21,3c-2.2.9-4.68,1.18-7.02.28-1.34-.51-2.42-1.96-2.44-3.5l-.11-14.28-3.24-.05c-.16-1.09,0-2.14-.04-3.27l3.24-.03.11-5.41,4.59-.03v5.4s5.08.07,5.08.07l-.04,3.22-4.98.04-.02,12.72c0,1.33,1.09,2.29,2.28,2.13l2.39-.3Z"/>
  <path class="cls-1" d="M278.94,56.57c-1.51.17-2.96.05-4.54.06v-29.16s4.51.05,4.51.05l.04,29.04Z"/>
  <path class="cls-1" d="M234.3,56.61l-4.7.02.06-20.92,4.59-.02.18,2.99c1.49-2.57,4.23-3.99,7.06-3.19l-.06,4.27c-1.24.07-2.39-.2-3.58.16-1.83.55-3.42,1.84-3.43,3.88l-.1,12.81Z"/>
  <polygon class="cls-1" points="125.26 56.6 120.56 56.64 120.57 35.73 125.26 35.73 125.26 56.6"/>
  <polygon class="cls-1" points="249.15 56.6 244.51 56.64 244.51 35.75 249.13 35.71 249.15 56.6"/>
  <polygon class="cls-1" points="249.11 31.73 244.33 31.78 244.28 27.47 249.14 27.47 249.11 31.73"/>
  <path class="cls-1" d="M125.18,31.75h-4.73s-.02-4.24-.02-4.24l4.75-.05c.08,1.45.1,2.69,0,4.29Z"/>
</svg>