<?xml version="1.0" encoding="UTF-8"?>
<svg id="Camada_1" data-name="Camada 1" xmlns="http://www.w3.org/2000/svg" viewBox="0 0 160 80">
  <defs>
    <style>
      .cls-1 {
        fill: #8c8d90;
      }
    </style>
  </defs>
  <path class="cls-1" d="M113.71,57.73c-5.24-1.65-10.5-4.2-14.84.26l-2.79,2.87c-3.3,3.39-7.9,3.77-12.09,1.93-3.18-1.39-5.82-3.14-9.02-4.69-5.27-2.55-10.32-3.02-16.07-1.88-2.85.57-5.48,1.5-8.22,2.48l-7.88,2.8c-3.04,1.08-8.81,2.35-11.92,1.28-2.1-.73-3.36-2.63-3.16-4.87.14-1.63.82-3.07,1.87-4.32l3-3.58c.85-1.02,1.5-2.2,1.57-3.56.12-2.12-1.62-4.68-2.89-6.3-2.04-2.62-4.32-5.96-4.62-9.36-.2-2.2.82-4.15,2.79-5.15,3.62-1.83,9.79-.21,14.22-.32,2.79-.06,5.13-1.28,6.79-3.47.75-.98,1.53-1.86,2.41-2.73,1.54-1.51,3.56-2.18,5.71-2,.93.08,1.8.21,2.65.61,1.36.65,2.49,1.55,3.55,2.62l2.8,2.86c3.11,3.18,7.38,4.6,11.85,4.27s8.93-2.02,13.22-3.79l4.86-2c2.96-1.22,5.81-2.44,8.87-3.39,2.72-.84,7.03-1.89,9.23.54,1.16,1.28,1.3,3.07.68,4.62l-1.3,3.28c-.31.77-.27,1.79.46,2.3,2.89,2.02,13.47-3.2,16.88,2.34.87,1.41.85,3.11.23,4.63-1.09,2.64-4.18,5.24-6.33,7.1-1.73,1.49-3.56,3.22-2.63,5.86.69,1.96,1.83,3.22,1.88,5.37.04,1.81-.92,3.3-2.53,4.05-2.75,1.29-6.41.21-9.19-.67ZM106.24,45.1c2.67-1.45,5.43-3.79,5.75-6.96.15-1.46-.72-2.71-2.16-3.06-3.99-.96-7.53,3.4-7.47,7.73,0,.39.2.69.11,1.14-1.47.58-3.36.91-4.5-.52-.6-.75-.85-1.7-.77-2.63,1.52-.95,2.88-1.91,4.11-3.18,1.82-1.89,4.09-5.4,3.88-8.04-.11-1.4-.98-2.42-2.31-2.7-1.53-.32-2.99.11-4.22,1.11-3.16,2.55-4.45,7.2-4.53,11.14-.76.19-1.44.7-1.45,1.52s.76,1.17,1.46,1.16c.1,1.41.47,2.67,1.32,3.74,2.08,2.33,5.4,1.93,7.96.82.99,1.82,2.87,2.63,4.86,2.62,1.61,0,3.15-.25,4.42-1.26.58-.44.97-1.27.58-1.93-.37-.63-1.16-.59-1.76-.34-1.69.7-3.81,1.39-5.29-.34ZM45.48,51.6c3.66,1.64,8.91-.08,11.99-2.29,2.4-1.72,3.95-4.17,4.58-7.02l1.69-.47c-.22,1.65.08,3.18,1.08,4.43.87,1.08,2.24,1.52,3.66,1.37,3.68-.4,6.59-4.48,5.98-8.2-.37-2.28-2.3-3.57-4.57-3.42-2.13.14-4.02,1.32-5.13,3.18-.89,0-1.65.17-2.49.42.02-2.43-.82-4.58-2.43-6.28-3.02-2.89-6.91-3.82-11.03-3.76-1.4.02-5.3.05-5.15,2.04.1,1.34,1.85,1.22,2.89,1.01,2.44-.51,5.82-.4,8.07.78,2.71,1.34,4.34,4.11,4.25,7.1l-6.67,2.44.94-8.1c.09-.49,0-.93-.33-1.27-.25-.26-.69-.4-1.08-.43-1.12-.09-1.67.59-1.8,1.59l-1.29,9.52c-1.86.76-3.68,1.8-4.56,3.57-.74,1.45-.15,3.11,1.4,3.81ZM91.21,34.04c1.1-.12,1.94-1.14,1.87-2.21-.08-1.2-1.27-2.04-2.36-1.98s-2.19.92-2.19,2.09c0,1.36,1.29,2.25,2.67,2.1ZM78.52,46.63c3.42.98,7.24-1.24,9.36-3.91.27,2.01,1.47,4.36,3.45,5.03.99.34,2.1-.1,2.44-1.09.51-1.49-1.91-.67-2.63-3.52-.52-2.05-.29-4.21.42-6.21.13-.38.18-.75-.02-1.07-.47-.76-1.88-.85-2.52-.38-1.59,1.15-.21,3.36-3.53,6.09-1.26,1.03-2.57,1.91-4.2,2.25-.83.18-1.96.02-2.27-.9-.56-1.66.27-3.48,1.7-4.38,1.9-1.19,2.31,1.54,3.9.71.57-.3.86-.96.85-1.57-.03-1.77-2.73-2.53-4.7-2-2.96.79-5.16,3.46-5.32,6.52-.11,2.1,1.02,3.86,3.07,4.45Z"/>
  <path class="cls-1" d="M57.44,45.19c-3.17,4.04-9.42,5.11-9.82,3.73-.27-.91,1.85-2.04,2.53-2.31l8.18-3.15c-.14.68-.48,1.21-.89,1.74Z"/>
  <path class="cls-1" d="M69.5,44.49c-.53.42-1.14.51-1.77.27-1.61-.63-1.33-4.27,1.33-5.99.42-.27.95-.21,1.37-.05,1.44.55,1.34,4-.93,5.77Z"/>
  <path class="cls-1" d="M101.87,31.62c-.85,2.47-2.6,4.43-4.49,6.14.35-2.44,1.46-6.36,3.33-7.97.33-.28,1.05-.47,1.28-.02.28.56.08,1.28-.12,1.85Z"/>
  <path class="cls-1" d="M108.85,38.27c-.07,1.76-1.95,3.46-3.24,4.36-.19-1.59,1.5-5.38,2.96-4.99.18.05.3.33.28.63Z"/>
</svg>