<?xml version="1.0" encoding="UTF-8"?>
<svg id="Camada_1" data-name="Camada 1" xmlns="http://www.w3.org/2000/svg" viewBox="0 0 160 80">
  <defs>
    <style>
      .cls-1 {
        fill: #8c8d90;
      }
    </style>
  </defs>
  <path class="cls-1" d="M49.27,41.23h4.56c0,2.8-.57,5.47-1.89,7.93-2.43,4.23-6.58,7.11-11.38,8.01-3.37.63-6.76.49-10.07-.51-5.65-1.71-10.14-6.06-12.1-11.61-.73-2.07-.95-4.13-.88-6.32.15-4.45,2.21-8.48,5.61-11.32,1.36-1.14,2.76-2.07,4.4-2.78,4.85-2.09,10.9-2.05,15.71.16,1.43.7,2.71,1.53,4.03,2.48l4.2-4.12c5.48,5.07,8.75,11.84,8.33,19.45-.39,7.19-3.33,13.13-9.34,17.17-3.72,2.5-7.99,3.73-12.48,3.94-3.5.17-6.97-.17-10.32-1.29-5.81-1.94-10.65-5.94-13.82-11.16-1.9-3.13-2.93-6.63-3.14-10.29-.34-6.02,1.78-11.85,5.9-16.21,2.17-2.3,4.6-4.13,7.47-5.46,4.41-2.04,9.19-2.73,14.04-2.08,4.05.51,7.82,2,11.24,4.36l-3.01,3.24c-2.96-2.03-6.25-3.04-9.74-3.33-1.35-.04-2.63-.11-3.97,0-4.61.38-8.85,2.41-12.08,5.65-3.57,3.6-5.29,8.28-5.04,13.36.17,3.49,1.25,6.79,3.27,9.67,1.91,2.72,4.37,4.97,7.31,6.56,5.43,2.95,12.94,3.29,18.58.96,6.23-2.58,10.42-8.35,10.84-15.09.3-4.8-1.1-9.44-4.13-13.28l-4.43,4.14c-1.12-1.24-2.21-2.29-3.52-3.24-4.51-3.23-10.49-3.57-15.31-.79-2.38,1.37-4.28,3.45-5.28,6.02s-1.13,5.41-.35,8.06c1.72,5.86,6.95,9.93,13.04,10.16,4.76.19,8.77-1.2,11.57-5.16,1.49-2.11,2.33-4.56,2.2-7.27Z"/>
  <path class="cls-1" d="M97.89,61.29l1.05,2.94-4.24.02-3.52-10.52-2.15-.02v10.53s-4.13,0-4.13,0v-25.52s7.15.06,7.15.06c1.52.01,2.91.48,4.05,1.45,1.03.93,1.62,2.15,1.91,3.51.39,3.41.58,7.6-3.16,9.18l3.04,8.37ZM94.07,44.76c-.01-.86-.26-1.69-.88-2.23-.99-.86-2.9-.6-4.18-.64v8.58c.87-.01,1.68.05,2.51-.04,1.36-.14,2.4-.99,2.51-2.35.09-1.08.06-2.13.04-3.32Z"/>
  <path class="cls-1" d="M134.33,58.88c0,2.02-.99,3.66-2.7,4.58-.83.44-1.77.73-2.77.74l-7.28.05v-25.3s7.37.07,7.37.07c3.1.03,5.33,2.44,5.36,5.52v14.34ZM130.43,59.23l.02-14.61c0-1.51-.97-2.61-2.44-2.69-.79-.04-1.58-.06-2.39,0v19.37c1.01.02,1.84.04,2.76-.05,1.01-.1,2.06-.82,2.06-2.03Z"/>
  <path class="cls-1" d="M145.45,38.98l3.89-.02-.02,20.88c-.64,4.29-4.59,5.27-8.27,4.66-1.52-.25-2.9-1.03-3.81-2.26-.77-1.04-.98-2.26-.98-3.57l-.02-19.7h3.96s.02,20.08.02,20.08c0,1.08.71,1.94,1.65,2.21s2.01.21,2.81-.39c.59-.45.78-1.17.78-1.93v-19.95Z"/>
  <path class="cls-1" d="M110.19,64.14c-2.14-.72-3.46-2.58-3.63-4.72-.07-.89,0-1.68-.03-2.59h4s0,1.89,0,1.89c0,.76.22,1.59.87,2.06,1.01.74,2.42.8,3.52.22.73-.38,1.04-1.14,1.08-1.94.1-2.06.33-4.4-1.64-5.39l-3.67-1.85c-1-.51-1.86-1.1-2.59-1.97-1.39-1.65-1.42-4.57-1.14-6.61.3-2.18,1.75-3.85,3.87-4.45,1.64-.46,3.36-.43,4.98.09,2.16.69,3.56,2.53,3.75,4.79.06.72.03,1.38.02,2.11h-3.77c-.03-1.4.24-3.25-1.48-3.83-.93-.31-2.08-.26-2.85.41-1.02.88-.85,3.66-.37,4.6,1.6,3.13,8.42,2.54,8.78,8.71.08,1.29.11,2.55,0,3.85-.19,2.1-1.43,3.86-3.46,4.59s-4.18.71-6.23.03Z"/>
  <path class="cls-1" d="M75.03,60.98c.65.45,1.46.49,2.14.38.98-.16,1.68-.91,1.7-1.88l.03-2.66h3.89s-.04,3.06-.04,3.06c-.03,2.17-1.72,3.81-3.76,4.42-1.4.42-2.78.4-4.22.16-2.57-.43-4.4-2.42-4.56-5.08v-16.06c.2-2.17,1.52-3.88,3.6-4.51,1.71-.52,3.58-.46,5.29.05,2.15.64,3.61,2.78,3.65,4.79l.04,2.22h-3.88s-.05-2.04-.05-2.04c-.03-1.36-1.22-2.18-2.57-2.07-1.08.08-2.19.81-2.19,2.06l-.02,15.31c0,.71.37,1.44.94,1.84Z"/>
  <path class="cls-1" d="M91.51,33.63l-3.02.04-2.63-7.71c-.56-.07-1.07-.03-1.73-.02v7.71s-2.82.01-2.82.01V15.58s5.32.03,5.32.03c2.12.01,3.75,1.6,3.92,3.7.16,2.31.33,4.76-2.05,6.04l3.01,8.29ZM87.78,22.12c.1-.93.08-1.83.01-2.72-.15-1.97-2.3-1.62-3.66-1.57v5.8c1.38,0,3.44.38,3.64-1.51Z"/>
  <path class="cls-1" d="M120.04,33.8c-2.82.43-5.59-.5-5.97-3.56v-11.25c.2-1.4.92-2.61,2.23-3.16,1.56-.64,3.36-.67,4.92,0s2.28,2.23,2.27,3.85l-.05,10.34c0,1.96-1.5,3.49-3.41,3.78ZM120.73,29.61l-.03-10.02c0-1.18-.82-1.88-1.94-1.9s-1.94.64-1.94,1.78v10.2c0,1.19.81,1.92,1.94,1.92s1.97-.7,1.97-1.97Z"/>
  <path class="cls-1" d="M76.99,30.18l.03-4.25-2.23-.03c0-.78-.06-1.51.02-2.28l5.03-.02-.05,6.63c-.01,1.66-1.26,2.92-2.75,3.43-.97.31-1.91.28-2.9.16-2.04-.24-3.54-1.83-3.54-3.94v-10.66c0-1.46.8-2.76,2.11-3.38,1-.48,2.14-.54,3.23-.46,2.92.23,4.2,2.58,3.85,5.26l-2.77-.03-.03-1.23c-.02-.98-.77-1.61-1.75-1.65s-1.87.56-1.87,1.62l.03,10.61c0,1.1,1.01,1.68,1.96,1.62.81-.05,1.61-.47,1.62-1.4Z"/>
  <path class="cls-1" d="M98.66,15.59l2.7-.02v14.89c-.28,1.57-1.2,2.74-2.72,3.19-1.3.38-2.74.38-4.01-.1-1.55-.58-2.53-1.97-2.53-3.66l-.04-14.32h2.82s.04,14.41.04,14.41c0,1.12,1.02,1.62,1.95,1.6,1.13-.02,1.81-.68,1.81-1.8l-.02-14.19Z"/>
  <polygon class="cls-1" points="104.3 64.22 100.3 64.24 100.3 38.72 104.3 38.72 104.3 64.22"/>
  <path class="cls-1" d="M112.62,22.73c-.2,3.19-3.56,4.06-6.42,3.74l-.02,7.2h-2.82s0-18.11,0-18.11l5.61.05c1.98.02,3.38,1.47,3.64,3.4.06,1.23.09,2.46.01,3.71ZM109.91,22.37c0-1.02.03-1.97-.02-2.93-.11-2-2.3-1.65-3.71-1.66v6.35c1.35.06,3.72.19,3.74-1.75Z"/>
</svg>