<?xml version="1.0" encoding="UTF-8"?>
<svg id="Camada_1" data-name="Camada 1" xmlns="http://www.w3.org/2000/svg" viewBox="0 0 186.8 80">
  <defs>
    <style>
      .cls-1 {
        fill: #8c8d90;
      }
    </style>
  </defs>
  <path class="cls-1" d="M19.1,34.67l8.93-8.66,8.22,8.05c.31.3.48.58.48,1.05l.12,13.12.14,8.5-7.66,7.52c-.19.19-.77.53-.91.21l-.14-8.76-.11-8.03c-.02-1.43-.16-2.75-.1-4.23-.2.13-.3.39-.3.62l-.02,6.71.15,1.95.05,11.42c0,.32-.28.47-.46.49-.22.03-.57.01-.77-.18l-6.15-5.93L3.49,41.81c-.49-.48-.79-.87-.84-1.48-.05-.64.18-1.14.68-1.62l4.76-4.65,11.16-11.06,7.16-6.99c.75-.74,1.91-.88,2.7-.11l11.44,11.06,8.71,8.42c1.35,1.3,2.65,2.48,3.9,3.87.49.54.36,1.66-.15,2.16l-8.19,8.06-6.16,6.06c-.27.26-.49.51-.9.66v-4.7c-.01-.3.1-.64.33-.86l9.96-9.7c.42-.41.54-1.26.15-1.64l-3.34-3.25-7.54-7.23-8.67-8.31c-.54-.52-1.19-.63-1.73-.1l-3.54,3.47-6.06,5.88-9.47,9.29c-.58.65-.47,1.39.14,1.97l11.43,10.95-.33-17.3Z"/>
  <path class="cls-1" d="M105.04,51.43c-2.85,4.45-7.7,3.01-12.21,3.27l-.13-13.92,6.98.04c2.48.01,4.55,1.36,5.59,3.59.86,2.27.84,4.74-.23,7.01ZM102.94,45.78c-.49-1.92-1.96-3.18-3.92-3.32-1.26-.09-2.49-.05-3.78,0l.11,10.68c1.51.04,2.94.11,4.36-.22,3.38-.79,3.93-4.44,3.24-7.12Z"/>
  <path class="cls-1" d="M143.02,34.23c-1.01,1.83-2.87,2.73-4.85,3.09l-6.74.07-.1-5.41-.02-8.64,6.73.03c2.34.01,4.26,1.4,5.29,3.45.96,2.41.98,5.07-.31,7.42ZM140.76,27.5c-1.12-2.99-4.36-2.53-6.9-2.54l.02,10.83c1.34.02,2.48.05,3.66-.14,3.79-.61,4.4-5.03,3.23-8.15Z"/>
  <path class="cls-1" d="M151.68,37.7c-2.4,0-4.62-.65-5.92-2.7-.9-1.42-1.07-3.13-1.07-4.82,0-3.17,1.23-6.12,4.49-7.02,1.74-.48,3.6-.46,5.33.13,4.2,1.45,5,7.13,3.31,10.86-1.11,2.44-3.48,3.54-6.14,3.54ZM155.96,30.18c-.03-1.65-.36-3.36-1.58-4.56-.97-.95-2.5-1.25-3.81-1.01-3.64.65-3.7,6.05-2.83,8.79.57,1.8,2.19,2.77,4.02,2.67,3.31-.17,4.24-3.02,4.2-5.89Z"/>
  <path class="cls-1" d="M170.65,37.39c-1.56-.15-2.59.42-3.33-.69l-3.19-4.75c-.44-.28-1.29-.11-1.85-.04l.04,5.47-2.5-.03-.09-14.01,5.76-.02c.85,0,1.68.26,2.41.59,1.28.67,1.87,1.88,1.95,3.28.11,2.07-1.06,3.75-3.21,4.25,1.09,1.47,2.02,3.01,3.33,4.27.49.47,1.06.81.69,1.68ZM167.17,27.27c-.06-1.24-.81-2.19-2.05-2.27-.95-.07-1.9-.04-2.88,0l.05,5.18c1.01,0,1.89.09,2.73-.1,1.41-.32,2.24-1.3,2.16-2.81Z"/>
  <path class="cls-1" d="M81.15,54.75l-2.59-.07-3.69-5.43c-.67-.14-1.32-.05-2.04,0l.12,5.41-2.57.09-.09-13.97h5.54c.57,0,1.14.14,1.64.28,1.68.42,2.64,1.8,2.74,3.47.12,2.04-1,3.77-3.04,4.28l3.79,4.85c.18.35.03.82.2,1.08ZM77.56,44.56c-.25-2.67-2.97-2.1-4.73-2.14l.02,5.18c.95.04,1.85.07,2.72-.15,1.34-.35,2.13-1.42,1.99-2.89Z"/>
  <path class="cls-1" d="M82.04,23.35h2.44s-.05,10.28-.05,10.28c-.01,2.11-1.99,3.68-3.99,3.95-1.23.16-2.37.13-3.56,0-2.19-.24-3.86-1.88-3.89-4.12l-.16-10.1c.94-.05,1.76-.03,2.68,0l.05,10.07c0,.78.45,1.65,1.11,2.04,1.25.75,2.86.71,4.12.02.75-.41,1.28-1.23,1.28-2.09l-.02-10.05Z"/>
  <path class="cls-1" d="M98.68,37.33l-3.21.04-3.82-5.62-3.87,5.61-2.7-.02,5.2-7.24-4.71-6.74h3.15s3.26,4.94,3.26,4.94l3.34-4.94c.89-.08,1.72-.07,2.79,0l-4.74,6.48,5.31,7.49Z"/>
  <path class="cls-1" d="M180.32,33.4l-5.5-.07-1.5,4.05-2.12-.05,5.25-13.99,2.64-.03,5.61,14.03h-2.87s-1.51-3.96-1.51-3.96ZM179.62,31.54l-2.19-5.56-2.09,5.65,4.28-.09Z"/>
  <path class="cls-1" d="M126.87,33.4l-5.69-.03-1.4,4.01c-.73-.02-1.34.08-2.11-.07l5.25-13.96h2.72s5.52,14.01,5.52,14.01c-.99.04-1.88.06-2.82,0l-1.48-3.94ZM126.17,31.54l-2.24-5.71-2.07,5.77,4.31-.06Z"/>
  <path class="cls-1" d="M68.87,33.37l-5.5-.03-1.45,4c-.74.08-1.42.05-2.17,0l5.32-14c.89-.03,1.65-.05,2.54.03l5.6,13.97-2.86.03-1.48-4ZM68.11,31.54l-2.14-5.51-1.97,5.57,4.11-.07Z"/>
  <path class="cls-1" d="M119.36,50.8l-5.52-.04-1.43,3.91-2.21.08,5.28-13.97h2.59s5.63,13.95,5.63,13.95l-2.86-.05-1.48-3.88ZM118.62,48.98l-2.17-5.6-2.07,5.68c1.48-.03,2.73.11,4.24-.08Z"/>
  <path class="cls-1" d="M68.92,46.9c-1.21,2.58-4.33,2.63-6.88,2.55l.08,5.24-2.57-.02-.14-13.89c2.81.21,7.6-.81,9.26,1.78.78,1.29.92,2.93.26,4.34ZM66.74,44.89c-.05-1.35-.91-2.3-2.21-2.43-.84-.08-1.67-.04-2.57-.01l.05,5.4c1,.11,1.91.09,2.79-.13,1.3-.32,2-1.45,1.95-2.83Z"/>
  <path class="cls-1" d="M90.27,48.41h-6.09s.05,4.75.05,4.75h7.38c.03.53.03.96-.01,1.54h-9.81s-.14-5.57-.14-5.57l-.04-8.34h9.41c.02.57.04,1.06-.01,1.64h-6.87s.05,4.31.05,4.31h6.07c.07.55.05.96.02,1.68Z"/>
  <path class="cls-1" d="M133.97,53.15c.09.51.05.97.01,1.54h-9.37s-.14-13.9-.14-13.9l2.66.02.04,12.34h6.8Z"/>
  <path class="cls-1" d="M113.22,35.8c.1.6.06,1.02,0,1.58l-8.94-.03-.09-13.99h2.51s.05,12.46.05,12.46l6.47-.02Z"/>
  <path class="cls-1" d="M117,37.33c-.88.11-1.67.06-2.57.03l-.11-8.21-.02-5.8h2.55s.16,13.98.16,13.98Z"/>
  <path class="cls-1" d="M109.66,54.64c-.82.14-1.6.02-2.5.06l-.17-13.89c.9-.06,1.68-.05,2.54-.01l.12,13.85Z"/>
  <polygon class="cls-1" points="102.38 37.35 99.87 37.37 99.81 23.35 102.32 23.34 102.38 37.35"/>
</svg>