<?xml version="1.0" encoding="UTF-8"?>
<svg id="Camada_1" data-name="Camada 1" xmlns="http://www.w3.org/2000/svg" viewBox="0 0 214.68 80">
  <defs>
    <style>
      .cls-1 {
        fill: #8c8d90;
      }
    </style>
  </defs>
  <path class="cls-1" d="M23.82,15.42c.37.13.76.04,1.19.09,2.34.28,4.59.89,6.62,2.11,1.47.88,1.87,2.81,1.02,4.25s-2.69,1.97-4.14,1.16c-5.33-2.98-11.99-.67-14.3,4.99-1.26,3.08-.91,6.62,1.04,9.47,1.73,2.53,4.65,4.2,7.87,4.35.8.04,1.55-.09,2.37-.17,1.64-.15,3.06,1.03,3.32,2.58s-.66,3.14-2.24,3.54c-1.2.3-2.38.33-3.63.29-3.93-.12-7.68-1.72-10.56-4.39-3.15-2.92-4.94-6.92-5.17-11.19-.03-.5-.02-.94,0-1.39.38-8.18,6.69-14.85,14.86-15.59.37-.03.78,0,1.14-.1h.6Z"/>
  <path class="cls-1" d="M107.83,31.61c0-1.74,1.54-2.99,3.14-2.97s3.08,1.3,3.09,3l.03,5.72,7.87-7.85c.87-.87,2.14-1.11,3.32-.66.97.37,1.92,1.33,1.93,2.52l.04,6.02,8.35-8.32c1.2-1.2,3.16-1.09,4.32.05s1.32,3.13.12,4.33l-13.81,13.81c-.87.87-2.23,1.04-3.37.55-.99-.42-1.84-1.43-1.84-2.63l-.03-5.84-7.89,7.87c-.89.89-2.21,1.11-3.41.61-1-.42-1.87-1.47-1.87-2.71v-13.51Z"/>
  <path class="cls-1" d="M71.39,33.91l.02,5.85c0,1.58,1.4,2.78,2.92,2.81s2.99-1.17,3-2.77c.01-1.88,1.37-3.42,3.28-3.36s3.15,1.68,3.04,3.57c-.29,5.03-4.46,8.92-9.46,8.82s-9.07-4.16-9.07-9.23v-17.34c0-1.75,1.42-3.09,3.1-3.1s3.15,1.28,3.16,3.03l.02,5.44,7.46.02c1.73,0,3.02,1.5,3,3.15s-1.33,3.09-3.06,3.09l-7.39.02Z"/>
  <path class="cls-1" d="M162.1,45.55c0,1.4-.81,2.5-1.97,2.99-1.34.56-2.72.02-3.63-.92-1.71.83-3.58,1.29-5.48,1.21-4.35-.18-8.11-3.07-9.51-6.99-1.54-4.34-.16-9.01,3.26-11.8s8.52-3.18,12.35-.76c3.1,1.95,4.95,5.31,4.96,8.97v7.31ZM155.81,37.83c-.23-2.35-2.24-4.01-4.5-3.92s-4.09,1.95-4.15,4.21,1.64,4.23,3.95,4.44c2.66.24,4.96-2.02,4.69-4.72Z"/>
  <path class="cls-1" d="M62.79,45.57c0,1.39-.82,2.52-1.99,2.97-1.31.51-2.72.11-3.61-.96-1.73.94-3.59,1.32-5.51,1.24-5.36-.22-9.69-4.49-10.08-9.78-.44-6.01,4.17-11.12,10.1-11.39s11.06,4.46,11.07,10.53v7.38ZM51.61,33.95c-2.43.33-4.06,2.58-3.72,4.91s2.52,3.99,4.84,3.68,4.07-2.5,3.75-4.86-2.45-4.06-4.87-3.73Z"/>
  <path class="cls-1" d="M195.53,41.72c1.26-1.16,3.08-1.19,4.25.03s1.03,3.1-.22,4.22c-2.21,1.98-5.04,2.97-8.02,2.86-3.99-.15-7.62-2.44-9.43-5.99-2.03-3.99-1.22-8.81,1.94-11.98,2.38-2.39,5.72-3.57,9.11-3.23,2.62.26,5.07,1.39,6.88,3.31,1.64,1.74,1.34,4.68-.67,5.99l-8.96,5.87c1.79.5,3.75.19,5.12-1.07ZM186.85,38.13l6.87-4.48c-1.76-.59-3.62-.23-5.03.84-1.1.88-1.87,2.15-1.84,3.64Z"/>
  <path class="cls-1" d="M99.96,41.72c1.22-1.12,2.96-1.2,4.16-.05,1.1,1.05,1.22,2.96.06,4.09-2.2,2.15-5.19,3.19-8.28,3.07-3.83-.16-7.32-2.3-9.18-5.63-2.2-3.95-1.55-8.85,1.55-12.14,4.19-4.44,11.3-4.69,15.84-.5.97.89,1.49,2.05,1.39,3.39-.09,1.17-.71,2.34-1.78,3.04l-8.88,5.8c1.75.53,3.74.2,5.12-1.06ZM91.28,38.13l6.87-4.47c-1.89-.62-3.93-.18-5.35,1.12-.93.85-1.56,2.03-1.52,3.35Z"/>
  <path class="cls-1" d="M39.17,45.17c0,1.68-1.5,2.89-3.03,2.93s-3.14-1.12-3.14-2.77l-.05-10.42h-9.32c-1.82.01-3.24-1.39-3.22-3.16s1.47-3.13,3.29-3.12l12.67.06c1.53,0,2.81,1.44,2.81,2.96v13.52Z"/>
  <path class="cls-1" d="M170.3,37.62l-.07,8.37c-.01,1.63-1.49,2.8-3.03,2.84s-3.09-1.12-3.13-2.77c-.07-2.92-.08-5.79,0-8.7.09-3.59,2.52-6.72,5.67-8.01,3.55-1.46,7.53-.62,10.15,2.06,1.23,1.26,1.12,3.27-.11,4.43s-3.21,1.12-4.45-.12c-.82-.82-2.04-1.04-3.15-.6-.94.37-1.84,1.31-1.85,2.5Z"/>
  <path class="cls-1" d="M41.68,63.05c.19-.31.4-.53.61-.81,1.03.97,2.73,1.2,4.06.87,1.54-.38,2.1-1.78,2.24-3.28-.86.82-1.88,1.2-3.03,1.18-1.95-.03-3.35-1.11-3.35-3.14,0-2.34,1.74-4.2,4.1-4.29,1.34-.08,2.66.33,3.26,1.64l.34-1.58h1s-1.4,6.98-1.4,6.98c-.33,1.65-1.28,3.04-2.99,3.41-1.52.33-3.59.17-4.84-.99ZM47.98,59.32c.85-.7,1.2-1.73,1.16-2.79-.04-.83-.51-1.54-1.3-1.83-1.1-.4-2.35-.26-3.29.47-1.01.78-1.44,2.09-1.18,3.33.13.6.56,1.1,1.13,1.33,1.16.46,2.49.3,3.48-.51Z"/>
  <path class="cls-1" d="M205.16,41.42c1.79-.31,3.38.91,3.66,2.61s-.88,3.35-2.61,3.63-3.31-.84-3.62-2.52.77-3.4,2.57-3.71Z"/>
  <path class="cls-1" d="M78.17,59.84l-.87,4.27h-1.05s2.08-10.44,2.08-10.44c.34-.04.66-.02,1-.01,0,.35-.19.57-.13,1.02.79-.7,1.71-1.1,2.78-1.11.66,0,1.28.09,1.87.4,1.79.95,1.89,3.16,1.2,4.81s-2.23,2.61-3.98,2.58c-1.25-.02-2.17-.35-2.9-1.53ZM84.05,58.46c.29-.68.37-1.37.28-2.06-.13-.98-.83-1.66-1.79-1.84-1.35-.25-2.7.26-3.43,1.45-.48.79-.65,1.71-.51,2.62s.83,1.56,1.74,1.74c1.55.31,3.08-.41,3.71-1.91Z"/>
  <path class="cls-1" d="M61.51,61.37c-.73.02-1.36-.07-1.97-.37-.84-.41-1.44-1.16-1.62-2.09-.42-2.24.82-4.58,3.13-5.17,1.93-.49,4.24.14,4.64,2.31.48,2.63-1.28,5.26-4.19,5.33ZM64.09,59.03c.56-.83.74-1.81.57-2.77s-.84-1.52-1.71-1.7c-1.58-.33-3.12.44-3.74,1.94-.27.66-.37,1.36-.27,2.07.13.95.82,1.62,1.75,1.8,1.31.25,2.63-.19,3.4-1.34Z"/>
  <path class="cls-1" d="M75.5,53.67l-1.52,7.6c-.32.05-.63.02-.99.02l.15-1.1c-.39.38-.77.69-1.27.88-1.55.61-3.91.4-4.28-1.57-.1-.52-.07-1.03.03-1.55l.86-4.29c.35-.03.68-.03,1.05,0l-.9,4.54c-.17.83.1,1.8.99,2.07,1.77.54,3.56-.41,3.95-2.34l.87-4.28c.34-.03.63-.03,1.05,0Z"/>
  <path class="cls-1" d="M53.33,61.27c-.35.06-.69.02-1.06.02l1.51-7.62c.33-.04.65-.02,1-.01-.01.41-.2.73-.15,1.18.8-.95,1.81-1.29,3.04-1.24-.06.35-.1.68-.2,1-1.72-.17-2.97.93-3.29,2.51l-.84,4.16Z"/>
</svg>