<?xml version="1.0" encoding="UTF-8"?>
<svg id="Camada_1" data-name="Camada 1" xmlns="http://www.w3.org/2000/svg" viewBox="0 0 178.61 80">
  <defs>
    <style>
      .cls-1 {
        fill: #8c8d90;
      }
    </style>
  </defs>
  <path class="cls-1" d="M156.83,52.77l-.04-5.85h13.55s-.14,11.14-.14,11.14c-1.18,2.15-3.57,3.79-5.84,4.78-7.02,3.06-16.11,1.19-20.04-5.7-1.41-2.48-1.87-5.23-1.68-8.07.22-3.23,1.61-6.05,3.87-8.35,2.83-2.89,6.72-4.42,10.79-4.48,3.59-.05,7,1.03,9.59,3.6l-4.74,4.73c-1.97-1.48-4.35-1.93-6.78-1.17-1.98.62-3.79,2.22-4.55,4.46-.71,2.09-.62,4.3.62,6.26,2.49,3.94,8.26,4.29,11.62,1.27.11-.89.09-1.71.06-2.61h-6.3Z"/>
  <polygon class="cls-1" points="44.3 50.42 44.24 62.06 36.36 62.05 36.36 37.5 44.23 37.5 44.26 49.45 53.36 38.92 57.2 34.52 62.07 39.58 53.33 49.51 62.07 59.26 56.73 64.57 52.13 59.37 44.3 50.42"/>
  <path class="cls-1" d="M131.44,48.99c.02-1.66-.49-3.13-1.65-4.19-1.62-1.49-4.3-1.25-6.41-1.15v18.41s-8.02-.02-8.02-.02v-24.56s14.94.07,14.94.07c3.6.02,6.54,2.07,7.9,5.33.47,1.15.62,2.29.77,3.58v15.59s-7.51,0-7.51,0v-13.06Z"/>
  <polygon class="cls-1" points="85.61 62.05 78.18 62.06 78.16 28.04 85.61 28.04 85.61 62.05"/>
  <polygon class="cls-1" points="97.95 62.05 90.51 62.05 90.51 28.05 97.95 28.04 97.95 62.05"/>
  <polygon class="cls-1" points="73.3 62.06 65.68 62.07 65.67 37.5 73.3 37.5 73.3 62.06"/>
  <polygon class="cls-1" points="110.57 62.03 102.88 62.06 102.88 37.51 110.57 37.5 110.57 62.03"/>
  <path class="cls-1" d="M6.17,62.49c-1.55-.87-.05-4.24.58-5.56,1.51-3.19,3.61-5.91,6.01-8.49,1.96-2.11,3.93-4.03,6.02-5.99,1.48-1.38,3.77-3.87,4.79-5.57,1.35-2.24.08-3.75-.46-6.15s.17-4.93,2.1-6.53l1.65,1.31c-1.15,1.94-1.31,4.09-.45,6.19.91,2.24.99,4.56-.35,6.68-1.12,1.78-2.54,3.32-4.09,4.78l-5.17,4.86c-1.79,1.69-3.26,3.49-4.73,5.47-2.01,2.71-3.38,5.67-4.4,8.87-.2.56-1.18.32-1.51.13Z"/>
  <path class="cls-1" d="M6.78,53.97c-.06.68-.56,1.26-1,1.4-.62.19-1.25-.06-1.61-.66-.3-.49-.44-1.14-.38-1.81.57-7.33,2.19-14.48,5.16-21.22,1.63-3.71,3.65-7.17,6.41-10.06,2.54-2.65,5.68-4.36,9.27-4.93.52-.08.87.33.96.74s-.27.86-.77.97c-5.91,1.31-9.03,5.42-11.65,10.58-3.89,7.67-5.68,16.38-6.39,25Z"/>
  <path class="cls-1" d="M42.97,25.17c-1.43-.34-3-1.52-2.52-3.07.29-.93,1.67-1.71,2.18-1.12.36.41-.52,1.46.82,1.94.95.34,1.9.51,2.92.71-1.42-3.19-5.05-5.09-8.32-5.72-3.43-.66-6.84-.58-10.29-.24-.4.04-.84-.12-1.01-.35s-.42-.99,0-1.1c2.18-.58,4.41-.6,6.67-.61,3.04-.02,5.94.28,8.82,1.29,3.98,1.38,6.94,4.79,7.8,8.89.24,1.15-.14,2.28-1,2.97-.32.26-.76.17-1.01.09-1.01-.33-.02-2.47-1.97-2.93l-3.11-.73Z"/>
  <path class="cls-1" d="M19.57,49.94c-.2.31-.67.19-.87.04-.22-.16-.48-.46-.32-.84.63-1.47,1.56-2.7,2.64-3.87,2.92-3.2,5.85-4.01,8.29-6.66,1.26-1.38,1.41-3.33.35-4.88-.78-1.13-1.83-1.71-1.72-2.44s1.83-.95,2.29-.59c2.58,2,4.17,6.14,1.63,8.96-1.11,1.23-2.42,2.17-3.85,3.03-3.11,1.87-6.43,4.08-8.44,7.25Z"/>
  <path class="cls-1" d="M138.96,26.49c-.76.12-1.41.01-2.18.02l-3.22-5.87v5.9c-.69.03-1.29,0-1.99-.04v-8.65c.88-.06,1.74-.07,2.61-.02l2.88,5.37.02-5.34c.6-.08,1.18-.08,1.86-.04l.02,8.67Z"/>
  <path class="cls-1" d="M44.17,28.84c-5.23-1.29-9.97,1.94-14.27.15-.86-.36-1.4-1.01-1.25-1.99.04-.25.15-.48.36-.59.77-.39.87.96,3.64.7,3.9-.37,6.67-1.97,11.35-.95,1.5.33,2.87,1.02,2.7,2.61-.05.45-.6,1.29-1.19,1.09-.41-.33-.7-.85-1.35-1.01Z"/>
  <path class="cls-1" d="M69.46,35.72c-2.22,0-3.81-1.5-3.85-3.56s1.53-3.58,3.61-3.7,3.89,1.35,4.02,3.41-1.53,3.85-3.78,3.85Z"/>
  <path class="cls-1" d="M109.41,29.65c1.03,1.13,1.13,2.76.52,4.02-.64,1.33-1.98,2.05-3.51,2.04-1.86-.01-3.38-1.23-3.68-2.97s.69-3.57,2.48-4.1c1.47-.43,3.09-.2,4.18,1Z"/>
  <path class="cls-1" d="M150.68,24.58l-2.79-.03-.67,1.96c-.69.05-1.34.07-2.11,0l3.08-8.69h2.31s3.03,8.7,3.03,8.7h-2.22s-.61-1.94-.61-1.94ZM150.26,22.87l-.97-2.96-.96,2.96h1.93Z"/>
  <path class="cls-1" d="M157.9,26.57c-1.4.3-2.77.11-3.99-.46.03-.63.1-1.15.39-1.66.94.43,3.24,1.02,3.59-.2.09-.31-.11-.75-.48-.9l-2.09-.86c-.53-.22-1.06-.7-1.28-1.25-.57-1.41.21-2.91,1.64-3.41,1.26-.44,2.69-.29,3.88.24,0,.72-.19,1.28-.51,1.82-.85-.72-3-.86-3.05.11-.08,1.55,4.28.73,4.11,4.01-.06,1.21-.83,2.27-2.21,2.57Z"/>
  <path class="cls-1" d="M124.92,26.52h-2.14s-.06-7.03-.06-7.03l-2.06.02c-.12-.56-.11-1.1-.01-1.7h6.69c.1.56.07,1.08.02,1.68l-2.44.07v6.96Z"/>
  <path class="cls-1" d="M143.89,26.5l-2.15.04-.04-7.05-1.95-.02c-.08-.61-.08-1.11.01-1.66l6.37-.02v1.65c-.74.13-1.43,0-2.23.05l-.02,7.01Z"/>
  <path class="cls-1" d="M130.32,26.52h-2.06s0-8.67,0-8.67c.68-.08,1.31-.04,2.04-.03l.02,8.71Z"/>
  <path class="cls-1" d="M29.22,22.64c.17.83-.38,1.55-.99,1.83-.67.3-1.43.09-2.05-.4-.55-.44-.62-1.36-.33-1.94.33-.66,1.05-1.05,1.8-.96.67.08,1.4.59,1.58,1.48Z"/>
</svg>